<?xml version="1.0" encoding="UTF-8"?>
<svg id="Layer_1" data-name="Layer 1" xmlns="http://www.w3.org/2000/svg" viewBox="0 0 2000 1512.21">
  <g>
    <path d="M329.27,1030.99v254.77h-48.79v-128.95l-79.81,95.84-79.46-95.84v128.95h-48.79v-254.77h3.14l125.12,147.08,125.47-147.08h3.14Z"/>
    <path d="M529.67,1290.29c-16.5,0-31.49-2.56-44.96-7.67-13.48-5.11-24.98-12.31-34.5-21.61-9.53-9.29-16.9-20.56-22.13-33.81-5.23-13.25-7.84-28-7.84-44.26v-151.95h48.79v151.71c0,12.76,2.09,23.32,6.28,31.67,4.18,8.35,9.35,14.97,15.51,19.83,6.15,4.87,12.77,8.24,19.87,10.09,7.08,1.86,13.42,2.78,18.99,2.78s11.9-.92,19-2.78c7.08-1.85,13.7-5.22,19.86-10.09,6.15-4.87,11.33-11.48,15.51-19.83,4.18-8.35,6.27-18.91,6.27-31.67v-151.71h48.79v151.95c0,16.27-2.56,31.02-7.67,44.26-5.11,13.24-12.43,24.51-21.96,33.81-9.53,9.3-21.03,16.5-34.5,21.61-13.48,5.11-28.58,7.67-45.31,7.67Z"/>
    <path d="M708.46,1252.3l26.49-39.04c12.77,8.83,25.97,16.44,39.56,22.83,13.59,6.39,27.82,9.58,42.69,9.58,7.9,0,14.87-.99,20.91-2.96,6.04-1.97,11.15-4.53,15.33-7.67,4.18-3.14,7.32-6.74,9.41-10.8,2.09-4.06,3.14-8.07,3.14-12.02,0-5.11-1.57-9.47-4.7-13.07-3.14-3.6-7.32-6.56-12.55-8.89-5.23-2.32-11.39-4.3-18.47-5.92-7.09-1.62-14.46-3.14-22.13-4.53-5.12-.92-11.04-2.03-17.78-3.31-6.74-1.28-13.71-3.02-20.91-5.23-7.21-2.21-14.29-5.11-21.26-8.71-6.97-3.6-13.24-8.13-18.82-13.59-5.58-5.46-10.05-11.96-13.42-19.52-3.37-7.55-5.06-16.44-5.06-26.66,0-14.87,3.02-27.24,9.06-37.12,6.04-9.87,13.77-17.66,23.18-23.35,9.41-5.69,19.87-9.7,31.37-12.02,11.5-2.32,22.59-3.49,33.28-3.49s20.21,.7,28.58,2.09c8.37,1.4,16.15,3.43,23.35,6.1,7.2,2.67,14.23,6.05,21.09,10.11,6.85,4.07,14.23,8.89,22.13,14.46l-27.18,38.34c-12.09-8.37-23.7-14.75-34.85-19.17-11.15-4.41-22.89-6.62-35.2-6.62-4.18,0-8.95,.52-14.29,1.57-5.35,1.05-10.4,2.73-15.16,5.05-4.77,2.33-8.71,5.29-11.85,8.89-3.14,3.61-4.71,7.96-4.71,13.07s1.86,9.41,5.58,12.9c3.71,3.49,8.48,6.39,14.29,8.71,5.8,2.33,12.2,4.3,19.17,5.93,6.97,1.63,13.71,3.26,20.22,4.88,4.88,1.17,10.63,2.33,17.25,3.49,6.62,1.17,13.47,2.79,20.56,4.88,7.09,2.09,14.12,4.88,21.09,8.37,6.97,3.49,13.18,7.96,18.65,13.42,5.46,5.46,9.87,12.2,13.24,20.22,3.37,8.02,5.05,17.72,5.05,29.1,0,13.25-2.33,24.75-6.97,34.5-4.65,9.76-11.27,17.84-19.87,24.22-8.6,6.39-18.82,11.21-30.67,14.46-11.85,3.25-24.98,4.88-39.38,4.88-13.25,0-24.92-.99-35.03-2.96-10.11-1.97-19.34-4.64-27.71-8.02-8.37-3.37-16.27-7.37-23.7-12.02-7.44-4.64-15.11-9.76-23-15.34Z"/>
    <path d="M1046.18,1285.76h-48.8v-254.77h48.8v254.77Z"/>
    <path d="M1330.57,1101.59c0,5.13-1.05,10.6-3.14,16.43-2.09,5.83-4.94,11.19-8.54,16.08-3.61,4.89-7.96,9.03-13.07,12.41-5.12,3.38-10.69,5.19-16.73,5.42,6.28,.47,12.49,2.26,18.65,5.39,6.15,3.13,11.67,7.36,16.55,12.69,4.88,5.33,8.89,11.47,12.02,18.42,3.14,6.95,4.7,14.37,4.7,22.25,0,13.91-2.09,25.67-6.27,35.28-4.18,9.62-9.88,17.38-17.08,23.29-7.21,5.91-15.63,10.14-25.27,12.69-9.64,2.55-19.93,3.82-30.84,3.82h-117.8v-255.12h112.22c10.22,0,19.87,.99,28.93,2.97,9.06,1.98,16.96,5.59,23.7,10.83,6.74,5.24,12.08,12.47,16.03,21.67,3.95,9.2,5.92,21.03,5.92,35.47Zm-138.01,32.91h59.95c4.88,0,9.12-.93,12.72-2.8,3.6-1.87,6.62-4.32,9.06-7.36,2.44-3.04,4.3-6.49,5.58-10.34,1.27-3.86,1.92-7.65,1.92-11.39s-.7-7.36-2.09-10.86c-1.4-3.51-3.26-6.55-5.58-9.12-2.33-2.57-5.05-4.67-8.19-6.31-3.14-1.63-6.45-2.46-9.93-2.46h-63.43v60.64Zm69.01,108.04c4.18,0,8.13-.98,11.85-2.96,3.71-1.97,6.97-4.64,9.76-8.02,2.79-3.37,4.99-7.09,6.62-11.15,1.62-4.06,2.44-8.19,2.44-12.37,0-8.6-3.2-15.8-9.58-21.61-6.39-5.8-15.16-8.71-26.31-8.71h-63.78v64.82h69.01Z"/>
    <path d="M1524.69,1290.29c-16.5,0-31.49-2.56-44.96-7.67-13.48-5.11-24.98-12.31-34.5-21.61-9.53-9.29-16.9-20.56-22.13-33.81-5.23-13.25-7.84-28-7.84-44.26v-151.95h48.79v151.71c0,12.76,2.09,23.32,6.27,31.67,4.18,8.35,9.35,14.97,15.51,19.83,6.15,4.87,12.77,8.24,19.86,10.09,7.09,1.86,13.42,2.78,19,2.78s11.9-.92,18.99-2.78c7.09-1.85,13.71-5.22,19.87-10.09,6.15-4.87,11.33-11.48,15.51-19.83,4.19-8.35,6.27-18.91,6.27-31.67v-151.71h48.8v151.95c0,16.27-2.56,31.02-7.67,44.26-5.12,13.24-12.43,24.51-21.96,33.81-9.53,9.3-21.03,16.5-34.5,21.61-13.48,5.11-28.58,7.67-45.31,7.67Z"/>
    <path d="M1927.59,1030.99c-6.51,10.69-14,22.89-22.48,36.59-8.48,13.71-17.14,27.71-25.96,42-8.83,14.29-17.55,28.35-26.14,42.17-8.6,13.83-16.15,26.31-22.65,37.47v96.54h-48.79v-96.54c-15.11-26.49-31.14-52.86-48.1-79.11-16.96-26.26-33.11-52.63-48.44-79.11h56.81c10.46,17.43,21.14,35.43,32.07,54.02,10.92,18.59,21.61,36.6,32.06,54.02,5.11-8.13,10.46-16.84,16.03-26.14,5.58-9.29,11.15-18.65,16.73-28.06,5.58-9.41,11.09-18.7,16.56-27.88,5.46-9.18,10.63-17.83,15.51-25.96h56.81Z"/>
  </g>
  <g>
    <path d="M1011.42,221.57h-22.82c-210.79,0-386.19,158.71-412.93,362.5-.17,1.33-.32,2.72-.5,4.07-.35,2.78-.76,5.57-1.04,8.38,0,.12-.04,.22-.05,.35h-19.85s1.82-20.51,6.9-44.31c-38.22,1.79-57.57,33.52-57.57,72.18v209.66c0,39.79,21.16,60.94,60.93,60.94h1.88c39.79,0,72.34-21.15,72.34-60.94v-188.13c0-198.95,162.58-361.72,361.28-361.72,78.06,0,150.54,25.13,209.78,67.7,23.92-14.71,47.34-25.12,69.61-32.36-72.56-61.26-166.14-98.31-267.97-98.31Z"/>
    <path d="M1435.5,552.39h-.93c5.1,23.87,6.93,44.48,6.93,44.48h-15.6c-6.71-67.43-29.69-130.24-64.9-184.47-20.51,9.81-40.06,22.02-58.59,36.61,37.18,56.83,58.87,124.63,58.87,197.26v188.13c0,39.79,32.56,60.94,72.35,60.94h1.87c39.79,0,60.93-21.15,60.93-60.94v-209.66c0-39.79-21.15-72.35-60.93-72.35Z"/>
    <g>
      <path d="M791.48,737.32c14.71,0,29.87,2.93,45.09,8.49v-187.54l92.13,109.28c16.28-20.45,33.23-41.75,50.02-62.82l-135-160.77h-85.73v298.45c10.9-3.31,22.13-5.09,33.5-5.09Z"/>
      <path d="M1162.24,610.72v261.91h79.18V508.96c-6.61,8.35-37.38,47.92-79.18,101.76Z"/>
      <path d="M1140,457.76c-21.12,24.44-218.81,273.38-275.06,344.06-10.77-10.1-23.34-18.07-37.83-23.68-20.6-7.97-41.68-9.94-62.9-2.44-17.96,6.35-30.96,18.27-37.97,36.15-6.45,16.45-5.89,33.17-.65,49.79,7.02,22.25,20.52,39.9,38.98,53.96,20.24,15.41,42.83,23.99,68.47,23.1,16.96-.58,31.89-5.8,44.04-16.46,0,0,3.9-3.75,4.06-3.92l-.03-.09s323.22-417.01,335.19-431.78c62.57-77.25,139.96-122.64,230.03-134.9,0,0-158.57-64.73-306.32,106.21Z"/>
    </g>
  </g>
</svg>