<?xml version="1.0" encoding="UTF-8"?>
<svg id="Layer_1" data-name="Layer 1" xmlns="http://www.w3.org/2000/svg" viewBox="0 0 2000 1512.21">
  <defs>
    <style>
      .cls-1 {
        fill: #1ed760;
      }
    </style>
  </defs>
  <path d="M1021.34,86.07h-42.64c-393.87,0-721.59,296.54-771.56,677.33-.31,2.49-.6,5.08-.93,7.6-.66,5.2-1.42,10.4-1.94,15.65-.02,.23-.07,.41-.09,.66h-37.09s3.4-38.32,12.89-82.79c-71.42,3.35-107.57,62.63-107.57,134.87v391.74c0,74.34,39.53,113.86,113.86,113.86h3.51c74.34,0,135.18-39.51,135.18-113.86v-351.52c0-371.73,303.78-675.88,675.05-675.88,145.86,0,281.28,46.96,391.98,126.49,44.7-27.48,88.46-46.93,130.06-60.46-135.58-114.47-310.44-183.69-500.71-183.69Z"/>
  <path d="M1813.73,704.21h-1.73c9.54,44.61,12.94,83.1,12.94,83.1h-29.15c-12.54-125.99-55.48-243.36-121.27-344.69-38.32,18.32-74.84,41.14-109.48,68.41,69.48,106.18,110,232.86,110,368.57v351.52c0,74.34,60.83,113.86,135.19,113.86h3.49c74.34,0,113.86-39.51,113.86-113.86v-391.74c0-74.34-39.51-135.18-113.86-135.18Z"/>
  <g>
    <path class="cls-1" d="M610.39,1049.74c27.48,0,55.81,5.47,84.25,15.87v-350.41l172.14,204.18c30.41-38.21,62.09-78.01,93.46-117.38l-252.25-300.4h-160.19v557.65c20.36-6.19,41.34-9.52,62.59-9.52Z"/>
    <path class="cls-1" d="M1303.15,813.19v489.38h147.96V623.05c-12.35,15.6-69.84,89.53-147.96,190.14Z"/>
    <path class="cls-1" d="M1261.59,527.38c-39.47,45.67-408.84,510.8-513.95,642.87-20.12-18.88-43.6-33.77-70.69-44.25-38.49-14.89-77.88-18.57-117.52-4.55-33.56,11.87-57.84,34.15-70.94,67.54-12.06,30.74-11.01,61.99-1.22,93.04,13.11,41.58,38.33,74.55,72.83,100.82,37.82,28.8,80.03,44.82,127.93,43.17,31.68-1.09,59.58-10.84,82.29-30.76,0,0,7.29-7.02,7.58-7.32l-.06-.17s603.92-779.17,626.3-806.78c116.91-144.34,261.51-229.14,429.8-252.06,0,0-296.28-120.95-572.35,198.45Z"/>
  </g>
</svg>