<svg width="18" height="18" viewBox="0 0 18 18" fill="none" xmlns="http://www.w3.org/2000/svg">
<path d="M15.9375 6.8625C14.205 4.14 11.67 2.5725 9 2.5725C7.665 2.5725 6.3675 2.9625 5.1825 3.69C3.9975 4.425 2.9325 5.4975 2.0625 6.8625C1.3125 8.04 1.3125 9.9525 2.0625 11.13C3.795 13.86 6.33 15.42 9 15.42C10.335 15.42 11.6325 15.03 12.8175 14.3025C14.0025 13.5675 15.0675 12.495 15.9375 11.13C16.6875 9.96 16.6875 8.04 15.9375 6.8625ZM9 12.03C7.32 12.03 5.97 10.6725 5.97 9C5.97 7.3275 7.32 5.97 9 5.97C10.68 5.97 12.03 7.3275 12.03 9C12.03 10.6725 10.68 12.03 9 12.03Z" fill="#0C0C0C" fill-opacity="0.5"/>
<path d="M9 6.855C7.8225 6.855 6.8625 7.815 6.8625 9C6.8625 10.1775 7.8225 11.1375 9 11.1375C10.1775 11.1375 11.145 10.1775 11.145 9C11.145 7.8225 10.1775 6.855 9 6.855Z" fill="#0C0C0C" fill-opacity="0.5"/>
</svg>
