<svg xmlns="http://www.w3.org/2000/svg" viewBox="0 0 217 132.78"><defs><style>.cls-1{fill:#bf2f38;}.cls-2,.cls-3,.cls-4,.cls-5{fill:none;}.cls-2,.cls-4{stroke:#dd8f82;}.cls-2,.cls-3{stroke-width:0.02px;}.cls-3,.cls-5{stroke:#bf2f38;}.cls-4,.cls-5{stroke-width:0.03px;}.cls-6{fill:#1ED760 ;}</style></defs><title>Asset 4</title><g id="Layer_2" data-name="Layer 2"><g id="Laag_1" data-name="Laag 1"><path class="cls-1" d="M116.68,40.49s1-1.29.38,1.14l-.23,2,.29,1.59-.55,1.37s-.45,0-3.25-.46-8-1.38-17.48-2.15H94.48c-.87,0-2.14-.06-3.73-.07-3.18-.05-7.62-.05-12.69.06l-3.17.08-3.64.24c-1.41.11-3,.29-4.73.46a112,112,0,0,0-11.74,2.15A129.92,129.92,0,0,0,41.44,51,133.09,133.09,0,0,0,17,62.77c-.81.49-1.63,1-2.41,1.54s-1.59,1-2.22,1.38c-1.35.85-2.56,1.69-3.64,2.43A48.82,48.82,0,0,1,4.37,71l1.75-1.19,4.43-3.12c.93-.63,1.84-1.23,3-1.9s2.29-1.49,3.46-2.19c2.36-1.45,4.95-2.93,7.61-4.3A146.52,146.52,0,0,1,40,51.47c4.47-1.68,7.79-2.71,8.45-3,0,0-2.68.76-6.69,2.14A141.72,141.72,0,0,0,27.23,56.5c-2.62,1.24-5.21,2.58-7.65,3.94-1.21.68-2.38,1.36-3.5,2s-2.19,1.4-3.26,2c-2,1.15-3.65,2.28-5,3.14a24.54,24.54,0,0,1-2.7,1.63l1.58-1.11c1-.7,2.41-1.73,4.11-2.87.85-.57,1.78-1.12,2.84-1.79s2.1-1.37,3.21-2c2.23-1.37,4.67-2.77,7.18-4.1,5-2.64,10.34-5,14.64-6.72s7.55-2.92,8.39-3.47c0,0-2.42.69-6.07,1.93s-8.52,3.08-13.39,5.3A134.74,134.74,0,0,0,14,61.5c-1,.59-1.89,1.13-2.75,1.6S9.64,64,9,64.45c-1.36.82-2.38,1.43-3,1.7l3.48-2.32c.93-.6,1.93-1.22,2.81-1.74s1.59-1.06,2-1.38c-1.07.6-2.12,1.21-3.2,1.77,1.66-1,3.25-2.18,4.92-3.2,1-.54,2-1.07,3-1.58,0,0-2.07,1-4.18,2.14l-3,1.58a10.56,10.56,0,0,1-1.69.72s-.82.69.09.17c.45-.26,1.36-.75,3-1.84s4-2.66,7.62-4.75l1.63-.8c1.07-.52,2.66-1.29,4.76-2.25a189.87,189.87,0,0,1,18.52-7.35,126.34,126.34,0,0,1,30.29-6.4A174,174,0,0,1,116.68,40.49Z" transform="translate(-1.88)"/><path class="cls-2" d="M117,47.36,113,46.6l-4.5-.78c-1.75-.23-3.7-.58-5.85-.81a132.69,132.69,0,0,0-30.95-.34s-.75,0-2.07.18-3.2.31-5.46.68a104.82,104.82,0,0,0-16.58,3.91,141.83,141.83,0,0,0-17,6.66c-4.78,2.23-8.24,4.22-9.39,4.82,0,0-.76.43-2,1.18s-2.91,1.8-4.92,3.12l-1.51.93-1.49,1-3.1,2.13a62.62,62.62,0,0,1-6.39,4" transform="translate(-1.88)"/><path class="cls-3" d="M47.46,49.5l2.46-.72L54,47.66a109.26,109.26,0,0,1,10.91-2.2,107.09,107.09,0,0,1,15-1.19c2.92,0,6.68,0,10.7.14s8.3.43,12.2.89c2,.18,3.82.47,5.52.67l4.5.68,4.15.71" transform="translate(-1.88)"/><path class="cls-3" d="M45.89,47.86s-2.1.65-5.33,1.81-7.54,2.88-12,4.94a127.29,127.29,0,0,0-12.68,6.83c-.93.56-1.84,1.17-2.68,1.71s-1.67,1-2.37,1.45c-1.42.92-2.57,1.72-3.39,2.26" transform="translate(-1.88)"/><path class="cls-2" d="M54.71,42.32,53,42.7c-1.1.3-2.69.68-4.59,1.2-3.78,1.09-8.81,2.71-13.84,4.7A140.37,140.37,0,0,0,20.6,55c-3.9,2-6.68,3.8-7.46,4.2" transform="translate(-1.88)"/><path class="cls-1" d="M69.1,51.38s-.1-.76,0-.92.42.27,1.18,2.67l1.44,3.77c.47.88.93,1.77,1.36,2.67l.7,2.85a1.66,1.66,0,0,1-.31.26c-.26.2-.75.52-1.59,1.07s-2.05,1.32-3.67,2.5a43,43,0,0,0-5.8,5.06s-.18.27-.49.77-.81,1.17-1.34,2a63.49,63.49,0,0,0-3.71,6.62l-.22.42-.27.51-.28.72a15.28,15.28,0,0,0-.71,2L55,85.63l-.27,1.47-.15.78c0,.27,0,.56-.07.84l-.17,1.79,0,1.95c0,.34,0,.67,0,1l.11,1.06a45.79,45.79,0,0,0,1.88,9.22,99.7,99.7,0,0,0,8.16,18c1.5,2.49,2.73,4.71,3.73,6.39a18.57,18.57,0,0,1,1.8,3.44l-.83-1.29c-.52-.83-1.33-2-2.17-3.42s-1.83-3.13-2.9-4.94-2-3.8-3-5.81-1.93-4-2.63-5.95c-.38-1-.78-1.9-1.11-2.79l-.85-2.56-.4-1.15-.29-1.06c-.18-.67-.36-1.26-.51-1.77a14.91,14.91,0,0,0-.66-1.92l.05.33c0,.22,0,.54.15,1,.19.83.46,2,.78,3.45l.69,2.34c.27.83.46,1.72.84,2.63.69,1.81,1.33,3.8,2.25,5.76,3.35,7.91,8.14,15.9,8.32,17.41l-.78-1.21c-.5-.77-1.24-1.86-2-3.24s-1.78-2.93-2.76-4.65-2-3.59-3-5.5-2-3.8-2.71-5.68l-1.2-2.69q-.51-1.31-1-2.49c-.3-.78-.65-1.5-.89-2.17s-.48-1.28-.71-1.8a6.81,6.81,0,0,0-1.18-2,11.22,11.22,0,0,0,.24,1.24c.17.79.42,1.93.71,3.31s.84,3,1.39,4.74c.31.87.63,1.77,1,2.69s.65,1.89,1.06,2.81c3,7.57,7.24,15.34,7.57,17.45l-.48-.85c-.31-.5-.68-1.23-1.09-2A24,24,0,0,0,59.66,126l1.07,2.66c-.81-1.27-1.69-2.5-2.44-3.82l-1-2.47s.62,1.69,1.21,3.49,1.3,3.64,1.15,4.05c0,0,.63.55.33-.21s-1.64-2.75-5.08-8.22c0,0-.2-.44-.53-1.31s-.86-2.15-1.57-3.79c-.38-.8-.71-1.75-1.12-2.77s-.87-2.12-1.32-3.32-.89-2.53-1.4-3.91-.9-2.91-1.39-4.5A59.62,59.62,0,0,1,45.67,91,38.26,38.26,0,0,1,47,77.6,40.09,40.09,0,0,1,54.8,63.52a56.55,56.55,0,0,1,6.37-6.4A57.92,57.92,0,0,1,69.1,51.38Z" transform="translate(-1.88)"/><path class="cls-4" d="M74.42,63.55c.15,0-.74.34-2.26,1.18a39.83,39.83,0,0,0-5.94,4,30.5,30.5,0,0,0-6.4,6.85,21.91,21.91,0,0,0-3.56,8.77l-.32,1.13a9.52,9.52,0,0,0-.27,1.34,13.2,13.2,0,0,0-.26,1.79,31.55,31.55,0,0,0,.85,10.69,70.16,70.16,0,0,0,4.23,11.9l2.17,4.42c.59,1.19,1.09,2,1.27,2.49l.86,1.5.93,1.65,1.24,2c1.68,3,4,6.55,5.4,9.49" transform="translate(-1.88)"/><path class="cls-5" d="M56.29,99.4a13.89,13.89,0,0,0-.21-1.67l-.23-1.26c-.1-.47-.1-1-.17-1.47l-.19-1.63c0-.56,0-1.12-.06-1.7a28.78,28.78,0,0,1,.09-3.48,23.89,23.89,0,0,1,1.35-5.75,5.69,5.69,0,0,1,.4-1l.35-.74.21-.48.09-.16a57.54,57.54,0,0,1,3.34-5.23,37.55,37.55,0,0,1,5.32-5.74,50.11,50.11,0,0,1,7.84-5.56" transform="translate(-1.88)"/><path class="cls-5" d="M52.51,101.09l.27,1.07c.19.68.37,1.67.75,2.87s.83,2.6,1.37,4.13,1.23,3.17,2,4.84,1.54,3.39,2.39,5l2.49,4.72c1.71,2.87,3,5.35,3.78,6.64" transform="translate(-1.88)"/><path class="cls-4" d="M45.53,94.77l.1,1.4.12,1.62c.07.62.2,1.32.32,2.09s.23,1.61.41,2.48l.65,2.74.35,1.46c.15.49.3,1,.46,1.47l.94,3c.76,2,1.5,4,2.3,5.88s1.61,3.65,2.37,5.2c1.57,3.05,2.66,5.39,2.94,6" transform="translate(-1.88)"/><path class="cls-1" d="M77.71,8.85c.44,8.1-4,26.79-15.43,23.58C52.16,29.59,58.65,0,70.45,0,73.62,0,77.33,2,77.71,8.85ZM71,5.19c-3-.75-6.69,3.73-8.25,10s-.41,12,2.58,12.72,6.7-3.74,8.26-10S74,5.93,71,5.19Z" transform="translate(-1.88)"/><path class="cls-6" d="M122.37,93.75c0,6-3.65,7.39-8.16,7.39h-19c-4.52,0-8.16-1.35-8.16-7.39V80.69c0-6,3.64-7.39,8.16-7.39h19c4.51,0,8.16,1.34,8.16,7.39ZM82.29,92c0,8.78,3,13,12.39,13h20c9.41,0,12.39-4.23,12.39-13v-9.5c0-8.79-3-13-12.39-13h-20c-9.41,0-12.39,4.22-12.39,13Z" transform="translate(-1.88)"/><path class="cls-6" d="M149.16,73.68H131.59V69.84h39.84v3.84H153.86v30.91h-4.7Z" transform="translate(-1.88)"/><path class="cls-6" d="M175.94,82.47c0-8.79,3-13,12.38-13h18c8.55,0,10.9,4,10.9,8.64v3h-4.13V79.49c0-5.91-3.65-6.19-8-6.19H188.8c-4.51,0-8.16,1.34-8.16,7.39V93.75c0,6,3.65,7.39,8.16,7.39h16.47c6.33,0,8.16-1.35,8.16-6V92.93h4.41v2.35c0,6.29-2,9.7-11.76,9.7H188.32c-9.4,0-12.38-4.23-12.38-13Z" transform="translate(-1.88)"/><path class="cls-1" d="M88.82,119.63h-.71l-.17-.75a2.82,2.82,0,0,1-2.17.91c-2.42,0-3.36-1.41-3.36-3s1-3,3.33-3c1.73,0,2.84.88,3,2H87.42a1.64,1.64,0,0,0-1.72-1.11c-1.48,0-2,.91-2,2.16a1.87,1.87,0,0,0,2,2.08,1.76,1.76,0,0,0,2-1.5H86v-.9h2.82Z" transform="translate(-1.88)"/><path class="cls-1" d="M94.54,118.89a2.12,2.12,0,1,1,2.11-2.12A2,2,0,0,1,94.54,118.89Zm0,.9c2.42,0,3.36-1.41,3.36-3s-.94-3-3.36-3-3.36,1.4-3.36,3S92.13,119.79,94.54,119.79Z" transform="translate(-1.88)"/><path class="cls-1" d="M103.31,118.89a2.12,2.12,0,1,1,2.11-2.12A2,2,0,0,1,103.31,118.89Zm0,.9c2.42,0,3.36-1.41,3.36-3s-.94-3-3.36-3-3.36,1.4-3.36,3S100.9,119.79,103.31,119.79Z" transform="translate(-1.88)"/><path class="cls-1" d="M109,113.92h1.2v5.71H109Z" transform="translate(-1.88)"/><path class="cls-1" d="M116.62,113.92h5v.89h-3.76v1.44h3.61v.9h-3.61v1.58h3.83v.9h-5Z" transform="translate(-1.88)"/><path class="cls-1" d="M124.07,113.92h1.38l3.4,4.28h0v-4.28H130v5.71h-1.35l-3.42-4.29h0v4.29h-1.15Z" transform="translate(-1.88)"/><path class="cls-1" d="M135.69,113.92H137l1.86,4.57,1.83-4.57H142l-2.51,5.71h-1.27Z" transform="translate(-1.88)"/><path class="cls-1" d="M144,113.92h5v.89h-3.76v1.44h3.61v.9h-3.61v1.58H149v.9h-5Z" transform="translate(-1.88)"/><path class="cls-1" d="M156.13,116a1.66,1.66,0,0,0-1.84-1.38c-1.1,0-1.92.74-1.92,2.23a1.91,1.91,0,0,0,2,2,1.64,1.64,0,0,0,1.76-1.45h1.3c-.17,1.14-.91,2.35-3.26,2.35a3,3,0,1,1,.14-6c2,0,3,1,3.12,2.27Z" transform="translate(-1.88)"/><path class="cls-1" d="M159.92,113.92h1.2v2.22h3.54v-2.22h1.2v5.71h-1.2V117h-3.54v2.59h-1.2Z" transform="translate(-1.88)"/><path class="cls-1" d="M170.11,114.81H168v-.89h5.48v.89h-2.14v4.82h-1.2Z" transform="translate(-1.88)"/><path class="cls-1" d="M177.77,113.76c.88,0,2.64.16,2.8,1.81h-1.3c0-.44-.44-.92-1.44-.92-.8,0-1.33.25-1.33.79,0,1.34,4.26,0,4.26,2.49,0,1.47-1.53,1.86-2.75,1.86-2,0-2.88-.81-2.89-2h1.29c0,.75.66,1.11,1.64,1.11.73,0,1.41-.21,1.41-.84,0-1.41-4.21-.18-4.21-2.53C175.25,114.25,176.38,113.76,177.77,113.76Z" transform="translate(-1.88)"/><path class="cls-1" d="M184.57,114.81h-2.15v-.89h5.49v.89h-2.14v4.82h-1.2Z" transform="translate(-1.88)"/><path class="cls-1" d="M191.21,116.48v-1.67h2.08c.63,0,1,.23,1,.83s-.36.84-1,.84Zm-1.2,3.15h1.2v-2.26h2c.88,0,1,.58,1,1.39a1.93,1.93,0,0,0,.14.87h1.3a2.32,2.32,0,0,1-.24-1.23c0-.8-.16-1.4-.84-1.54v0a1.34,1.34,0,0,0,.95-1.37c0-.89-.47-1.55-1.93-1.55H190Z" transform="translate(-1.88)"/><path class="cls-1" d="M198.05,113.92h5v.89h-3.76v1.44h3.61v.9h-3.61v1.58h3.83v.9h-5Z" transform="translate(-1.88)"/><path class="cls-1" d="M205.5,113.92h5v.89H206.7v1.44h3.61v.9H206.7v1.58h3.83v.9h-5Z" transform="translate(-1.88)"/><path class="cls-1" d="M213,113.92h1.2v2.64l2.92-2.64h1.65l-2.67,2.32,2.84,3.39h-1.63L215.12,117l-1,.85v1.78H213Z" transform="translate(-1.88)"/></g></g></svg>