<svg width="299" height="56" viewBox="0 0 299 56" fill="none" xmlns="http://www.w3.org/2000/svg">
<path d="M39.5944 0H37.8155C21.3804 0 7.70566 12.3922 5.62093 28.3052C5.60797 28.409 5.59587 28.5171 5.58205 28.6227C5.5544 28.8399 5.5233 29.0571 5.5017 29.2768C5.50084 29.2864 5.4991 29.2941 5.49824 29.3045H3.95089C3.95089 29.3045 4.09258 27.7029 4.48827 25.8444C1.50847 25.9845 0 28.4618 0 31.4806V47.8513C0 50.9585 1.6493 52.6094 4.75092 52.6094H4.89693C7.99941 52.6094 10.5377 50.9585 10.5377 47.8513V45.5134V33.161C10.5377 17.6262 23.2138 4.91639 38.7054 4.91639C44.792 4.91639 50.4423 6.87879 55.0611 10.2022C56.9264 9.05405 58.7519 8.24071 60.4885 7.67569C54.8295 2.89255 47.5334 0 39.5944 0Z" fill="black"/>
<path d="M72.6583 25.8314H72.5857C72.984 27.696 73.1257 29.3045 73.1257 29.3045H71.9092C71.3857 24.0394 69.5938 19.1343 66.849 14.9006C65.2498 15.6663 63.7258 16.6198 62.2804 17.7594C65.179 22.1964 66.8706 27.4909 66.8706 33.1618V45.5142V47.8522C66.8706 50.9593 69.4089 52.6102 72.5114 52.6102H72.6574C75.759 52.6102 77.4083 50.9593 77.4083 47.8522V31.4815C77.4092 28.3735 75.7608 25.8314 72.6583 25.8314Z" fill="black"/>
<path d="M22.4466 40.2708C23.5931 40.2708 24.775 40.4992 25.9621 40.9336V26.2908L33.145 34.8231C34.4142 33.2259 35.736 31.5628 37.0449 29.918L26.5193 17.3648H19.8348V40.6688C20.6841 40.4101 21.5602 40.2708 22.4466 40.2708Z" fill="#1ED760"/>
<path d="M51.3529 30.3861V50.8373H57.5268V22.4396C57.0118 23.092 54.6126 26.1809 51.3529 30.3861Z" fill="#1ED760"/>
<path d="M49.619 18.4421C47.9723 20.3509 32.5593 39.7889 28.1729 45.3075C27.3332 44.5183 26.3534 43.8962 25.2234 43.4584C23.6173 42.8363 21.974 42.6823 20.3195 43.2681C18.9191 43.7638 17.9065 44.6949 17.3596 46.0905C16.8568 47.3754 16.9 48.6811 17.3086 49.9781C17.8555 51.7156 18.9078 53.0939 20.3472 54.1911C21.9256 55.3946 23.6864 56.0643 25.6856 55.9951C27.0075 55.9493 28.1721 55.5417 29.119 54.7094C29.119 54.7094 29.4231 54.416 29.4352 54.403L29.4326 54.3961C29.4326 54.3961 54.6326 21.8348 55.5657 20.6814C60.4436 14.6497 66.4775 11.1056 73.4998 10.1477C73.5024 10.1486 61.1391 5.09464 49.619 18.4421Z" fill="#1ED760"/>
<path d="M125.237 14.1412V41.7855H119.951V27.7932L111.304 38.1927L102.695 27.7932V41.7855H97.4084V14.1412H97.7482L111.304 30.1006L124.897 14.1412H125.237Z" fill="#1ED760"/>
<path d="M146.95 42.2773C145.162 42.2773 143.539 41.9995 142.079 41.4452C140.619 40.8909 139.373 40.1093 138.34 39.1005C137.308 38.0917 136.509 36.8689 135.943 35.432C135.376 33.9951 135.093 32.3936 135.093 30.6296V14.1412H140.379V30.6032C140.379 31.9883 140.606 33.133 141.059 34.0396C141.511 34.9462 142.072 35.6641 142.738 36.1919C143.404 36.721 144.122 37.0853 144.891 37.2873C145.658 37.4893 146.345 37.5891 146.949 37.5891C147.553 37.5891 148.238 37.4881 149.006 37.2873C149.774 37.0865 150.492 36.721 151.159 36.1919C151.825 35.6641 152.386 34.9462 152.84 34.0396C153.293 33.133 153.52 31.9883 153.52 30.6032V14.1412H158.806V30.6296C158.806 32.3948 158.528 33.9951 157.975 35.432C157.421 36.8689 156.628 38.0917 155.597 39.1005C154.564 40.1093 153.318 40.8909 151.858 41.4452C150.398 41.9995 148.763 42.2773 146.95 42.2773Z" fill="#1ED760"/>
<path d="M166.321 38.1554L169.191 33.9194C170.575 34.8777 172.004 35.7038 173.477 36.3963C174.95 37.0901 176.492 37.4364 178.103 37.4364C178.959 37.4364 179.714 37.3294 180.368 37.1154C181.023 36.9013 181.577 36.6236 182.03 36.2833C182.482 35.943 182.823 35.5522 183.049 35.111C183.276 34.6697 183.389 34.2356 183.389 33.8064C183.389 33.2521 183.22 32.7795 182.88 32.3888C182.54 31.998 182.088 31.6769 181.521 31.4244C180.954 31.1731 180.288 30.9579 179.519 30.7812C178.751 30.6056 177.953 30.4409 177.122 30.2894C176.567 30.1896 175.926 30.0693 175.196 29.9298C174.466 29.7916 173.71 29.6028 172.931 29.3623C172.15 29.123 171.383 28.808 170.627 28.4172C169.871 28.0265 169.192 27.5347 168.588 26.9419C167.984 26.3503 167.499 25.6433 167.134 24.8245C166.769 24.0056 166.587 23.0413 166.587 21.9315C166.587 20.3179 166.913 18.976 167.569 17.9035C168.223 16.8321 169.06 15.9881 170.079 15.37C171.098 14.752 172.232 14.3179 173.478 14.0654C174.724 13.8141 175.926 13.6867 177.085 13.6867C178.242 13.6867 179.275 13.7624 180.181 13.9139C181.087 14.0654 181.93 14.2867 182.711 14.5752C183.491 14.865 184.252 15.2318 184.995 15.6718C185.737 16.1131 186.537 16.6361 187.393 17.241L184.448 21.4013C183.138 20.4934 181.88 19.8009 180.672 19.3211C179.463 18.8426 178.192 18.6033 176.858 18.6033C176.404 18.6033 175.889 18.6598 175.309 18.7728C174.729 18.8858 174.182 19.0698 173.667 19.3211C173.15 19.5736 172.723 19.8946 172.383 20.2854C172.043 20.6774 171.873 21.1488 171.873 21.7031C171.873 22.2586 172.075 22.7239 172.477 23.1026C172.879 23.4814 173.395 23.7964 174.024 24.0477C174.653 24.3002 175.346 24.5143 176.101 24.691C176.857 24.8678 177.586 25.0445 178.291 25.2201C178.819 25.3463 179.443 25.4726 180.161 25.5988C180.879 25.7251 181.62 25.9018 182.389 26.1279C183.157 26.3551 183.918 26.6569 184.674 27.0357C185.429 27.4144 186.102 27.9002 186.694 28.4918C187.285 29.0846 187.764 29.8156 188.129 30.685C188.494 31.5543 188.676 32.6076 188.676 33.8424C188.676 35.2793 188.424 36.5274 187.921 37.5867C187.417 38.646 186.7 39.5226 185.769 40.2152C184.837 40.9089 183.73 41.432 182.445 41.7843C181.162 42.1366 179.739 42.3133 178.178 42.3133C176.744 42.3133 175.478 42.2063 174.383 41.9923C173.288 41.7783 172.287 41.4885 171.382 41.123C170.475 40.7574 169.619 40.3234 168.814 39.8184C168.007 39.3158 167.176 38.7603 166.321 38.1554Z" fill="#1ED760"/>
<path d="M202.911 14.1412H197.625V41.7855H202.911V14.1412Z" fill="#1ED760"/>
<path d="M233.723 21.8029C233.723 22.3596 233.609 22.9535 233.383 23.586C233.156 24.2185 232.848 24.8004 232.457 25.3307C232.067 25.8609 231.594 26.3107 231.042 26.6774C230.487 27.0441 229.883 27.2401 229.229 27.2653C229.909 27.3158 230.582 27.5106 231.25 27.8497C231.916 28.1888 232.514 28.6481 233.043 29.2265C233.572 29.8048 234.006 30.4709 234.346 31.2248C234.686 31.9799 234.856 32.7843 234.856 33.6392C234.856 35.1483 234.629 36.424 234.177 37.4677C233.724 38.5114 233.106 39.3542 232.327 39.9951C231.546 40.6372 230.634 41.0953 229.589 41.3719C228.545 41.6484 227.43 41.7867 226.248 41.7867H213.484V14.1039H225.643C226.75 14.1039 227.795 14.2109 228.776 14.4262C229.758 14.6414 230.613 15.0334 231.344 15.6009C232.074 16.1696 232.653 16.9548 233.082 17.9528C233.509 18.952 233.723 20.2349 233.723 21.8029ZM218.771 25.3728H225.266C225.794 25.3728 226.254 25.2718 226.644 25.0686C227.034 24.8654 227.361 24.5996 227.626 24.2702C227.89 23.9407 228.092 23.5668 228.23 23.1483C228.368 22.7299 228.438 22.3187 228.438 21.9123C228.438 21.5071 228.362 21.1139 228.211 20.7339C228.06 20.3528 227.858 20.0233 227.607 19.7444C227.355 19.4654 227.059 19.2369 226.72 19.0602C226.38 18.8834 226.021 18.7933 225.644 18.7933H218.772V25.3728H218.771ZM226.247 37.0961C226.699 37.0961 227.128 36.9891 227.53 36.7751C227.932 36.5611 228.285 36.2713 228.588 35.9058C228.89 35.5402 229.129 35.1362 229.306 34.6962C229.481 34.2549 229.57 33.8076 229.57 33.3531C229.57 32.42 229.224 31.6385 228.531 31.0084C227.839 30.3783 226.889 30.0633 225.681 30.0633H218.771V37.0973H226.247V37.0961Z" fill="black"/>
<path d="M254.756 42.2773C252.968 42.2773 251.344 41.9995 249.885 41.4452C248.425 40.8909 247.179 40.1093 246.147 39.1005C245.114 38.0917 244.316 36.8689 243.749 35.432C243.182 33.9951 242.899 32.3936 242.899 30.6296V14.1412H248.185V30.6032C248.185 31.9883 248.412 33.133 248.865 34.0396C249.319 34.9462 249.878 35.6641 250.546 36.1919C251.212 36.721 251.93 37.0853 252.698 37.2873C253.465 37.4893 254.152 37.5891 254.756 37.5891C255.36 37.5891 256.045 37.4881 256.814 37.2873C257.582 37.0865 258.299 36.721 258.966 36.1919C259.633 35.6641 260.194 34.9462 260.646 34.0396C261.1 33.133 261.326 31.9883 261.326 30.6032V14.1412H266.612V30.6296C266.612 32.3948 266.335 33.9951 265.781 35.432C265.226 36.8689 264.434 38.0917 263.401 39.1005C262.369 40.1093 261.123 40.8909 259.663 41.4452C258.205 41.9995 256.569 42.2773 254.756 42.2773Z" fill="black"/>
<path d="M298.408 14.1412C297.704 15.3015 296.891 16.6241 295.972 18.1115C295.053 19.5988 294.116 21.1175 293.159 22.6686C292.203 24.2196 291.259 25.7443 290.327 27.2449C289.396 28.7455 288.577 30.1006 287.873 31.3102V41.7855H282.587V31.3102C280.951 28.4364 279.213 25.5748 277.376 22.7251C275.538 19.8766 273.789 17.0149 272.127 14.14H278.283C279.416 16.0313 280.574 17.9852 281.757 20.0016C282.94 22.0193 284.099 23.9732 285.231 25.8633C285.784 24.9808 286.364 24.0357 286.968 23.0269C287.572 22.0193 288.177 21.0032 288.781 19.9824C289.385 18.9616 289.983 17.9528 290.575 16.9572C291.165 15.9616 291.726 15.0225 292.255 14.14H298.408V14.1412Z" fill="black"/>
</svg>
